<svg width="140" height="18" viewBox="0 0 140 18" fill="none" xmlns="http://www.w3.org/2000/svg">
    <path d="M22.8 0v3.46h4.513v14.064h3.485V3.46h4.512V0H22.8zM36.677 4.412V17.55H48.46V4.412H36.677zm8.298 9.652h-4.838V7.872h4.838v6.192zM50.681 4.412v13.112h3.46V7.872h1.905v6.92h3.485v-6.92h1.905v9.652h3.485V4.412h-14.24zM67.158 4.412V17.55h11.783V4.412H67.158zm8.298 9.652h-4.838V7.872h4.838v6.192zM81.162 4.412v13.112h3.46V7.872h1.905v6.92h3.485v-6.92h1.905v9.652h3.485V4.412h-14.24zM97.639 4.412V17.55h11.783V4.412H97.639zm8.298 9.652h-4.839V7.872h4.839v6.192z" fill="#A96E60"/>
    <path d="M115.002 15.055v-.807c.766.296 1.12 1.013 1.054 1.836h-3.474V14.14h.502v-1.136h-1.646v4.544h1.144v-.321h4.618v-1.457a2.772 2.772 0 0 0-2.198-2.708v-.247h-1.144v2.239h1.144zM111.421 8.026l.017 4.395h1.136v-.403h4.618v-1.136h-1.877c-.453-2.56-3.26-2.922-3.894-2.856zm2.544 2.412c.074.14.123.288.173.444h-1.564v-1.54c.51.165 1.062.478 1.391 1.095zM111.438 7.882h1.136V6.4h4.618V5.256h-4.618V3.775h-1.136v4.107z" fill="#FFFFFE"/>
</svg>
