<?xml version="1.0" standalone="no"?>
<!DOCTYPE svg PUBLIC "-//W3C//DTD SVG 20010904//EN"
 "http://www.w3.org/TR/2001/REC-SVG-20010904/DTD/svg10.dtd">
<svg version="1.0" xmlns="http://www.w3.org/2000/svg"
 width="600.000000pt" height="567.000000pt" viewBox="0 0 600.000000 567.000000"
 preserveAspectRatio="xMidYMid meet">

<g transform="translate(0.000000,567.000000) scale(0.100000,-0.100000)"
fill="#000000" stroke="none">
<path d="M0 2835 l0 -2835 465 0 465 0 0 68 c0 195 37 493 84 674 31 118 114
350 171 478 23 52 61 141 84 197 24 57 47 101 51 98 4 -3 8 1 7 8 -1 34 4 48
15 41 7 -5 8 -3 3 6 -4 7 -3 15 2 19 20 13 195 480 248 661 39 132 44 142 72
137 13 -2 23 -1 23 3 0 3 10 6 21 6 12 -1 24 6 27 14 5 13 3 13 -11 1 -11 -9
-17 -10 -17 -2 0 10 5 12 37 15 6 1 26 21 44 46 18 25 38 48 45 53 7 4 10 15
7 24 -4 11 -3 14 5 9 8 -4 12 -1 12 10 0 10 3 14 7 11 3 -4 17 9 30 28 26 38
29 50 10 39 -6 -4 4 8 23 27 l35 34 45 -25 c25 -14 59 -33 75 -43 88 -51 363
-173 371 -164 3 2 -26 17 -63 32 -97 40 -357 169 -393 195 -23 16 -28 25 -21
34 6 7 8 15 5 19 -3 3 0 15 6 27 8 15 8 20 1 16 -7 -4 -11 1 -11 13 0 10 -6
22 -12 24 -10 4 -10 6 -1 6 6 1 15 -3 18 -9 3 -5 11 -10 16 -10 6 0 7 5 4 10
-3 6 -2 10 3 10 5 0 7 18 5 41 -3 28 -1 39 7 34 5 -3 8 -11 5 -16 -4 -5 -1 -9
5 -9 6 0 8 10 4 24 -3 13 0 29 8 37 16 17 16 37 0 66 -13 23 -4 36 20 30 7 -2
10 -2 6 0 -12 7 -9 31 3 35 8 3 6 10 -5 20 -15 15 -15 17 3 23 14 4 18 14 17
43 -1 20 2 40 7 43 15 11 -2 49 -19 42 -12 -4 -13 -1 -4 22 7 20 8 31 0 39 -7
7 -10 7 -10 -1 0 -6 -6 -10 -12 -9 -24 3 -37 17 -31 31 3 10 -1 15 -12 15 -9
0 -13 5 -10 10 7 11 -23 9 -42 -3 -9 -6 -11 -3 -7 7 5 12 -1 15 -31 12 -20 -1
-40 -8 -44 -15 -5 -7 -11 -12 -15 -12 -28 4 -49 -3 -74 -24 -19 -16 -33 -21
-37 -15 -3 6 -10 8 -15 5 -5 -3 -21 -3 -35 1 -20 5 -25 11 -22 25 3 11 1 17
-4 13 -5 -3 -9 0 -9 6 0 6 -4 9 -8 6 -10 -6 -8 116 2 132 4 7 2 12 -4 12 -7 0
-9 14 -5 41 4 26 2 45 -5 49 -7 4 -4 15 10 33 21 27 21 27 1 27 -14 0 -19 5
-15 15 4 8 11 12 18 8 7 -4 7 -1 -1 9 -7 8 -10 18 -6 21 3 4 -3 7 -15 7 -14 0
-22 6 -22 16 0 10 6 14 15 10 8 -3 15 -1 15 4 0 14 -31 41 -40 35 -4 -3 -6 4
-3 15 5 17 1 19 -33 13 -52 -8 -105 -5 -119 7 -7 5 -14 7 -18 4 -14 -14 -125
83 -150 132 -25 48 -55 144 -62 194 -3 25 -10 60 -15 79 -5 19 -7 37 -5 41 2
4 0 22 -5 41 -10 34 -14 209 -6 282 3 27 -2 45 -17 65 -15 19 -16 23 -4 13 15
-12 17 -11 19 5 0 11 2 24 2 31 1 7 6 17 13 24 6 6 9 18 6 26 -3 8 -1 24 4 36
26 55 35 87 54 175 10 52 16 98 13 103 -3 5 -1 9 3 9 5 0 15 17 22 38 15 40
77 106 92 97 5 -4 9 -1 9 6 0 7 11 2 25 -11 14 -13 23 -25 20 -28 -5 -6 20
-39 88 -112 97 -105 115 -127 184 -221 77 -107 90 -129 128 -219 33 -77 52
-153 60 -240 3 -36 11 -70 17 -77 8 -10 7 -12 -6 -7 -9 3 -16 1 -16 -5 0 -7
10 -16 23 -21 21 -8 21 -9 -5 -9 -23 -1 -28 -6 -34 -38 -4 -21 -13 -46 -22
-55 -24 -28 -2 -21 24 7 12 13 21 32 20 42 -2 10 -1 12 1 6 6 -18 9 -17 45 17
l31 30 33 -19 c28 -17 32 -17 27 -4 -4 11 -2 14 5 9 7 -4 12 -3 12 2 0 5 7 9
15 9 8 0 15 -6 15 -13 0 -15 66 2 92 24 12 10 21 11 37 3 17 -9 22 -8 31 9 6
11 16 20 23 20 8 0 7 -4 -3 -10 -18 -11 -7 -25 15 -17 8 4 19 7 23 7 4 1 15 9
26 18 10 9 28 16 40 15 11 -1 16 0 9 3 -7 3 -9 12 -6 20 3 7 9 11 14 8 5 -3
12 2 15 10 3 9 10 13 15 10 5 -3 9 2 9 10 0 8 5 18 12 22 7 4 8 3 4 -4 -13
-22 12 -12 31 11 10 13 26 26 36 30 11 4 15 12 11 18 -4 8 -3 9 5 5 13 -8 61
32 61 52 0 7 -7 15 -15 18 -19 8 -19 21 0 21 8 0 12 -4 10 -8 -3 -3 3 -13 12
-20 15 -12 16 -12 10 3 -4 13 -2 15 11 11 15 -6 16 -5 2 12 -14 17 -14 18 8 6
27 -15 29 -4 2 19 -20 17 -20 18 7 16 16 -1 34 -5 41 -9 7 -5 12 -4 12 2 0 6
-5 11 -11 11 -6 0 -9 7 -7 16 2 8 5 15 8 14 3 -1 18 3 33 9 22 9 28 8 25 -1
-3 -7 -16 -13 -31 -12 -22 1 -24 -1 -14 -17 11 -18 12 -18 19 -1 3 9 7 13 7 8
1 -5 8 -3 17 5 9 7 13 21 10 34 -4 15 -1 21 14 21 14 0 16 -4 9 -17 -8 -15 -4
-15 31 2 62 30 179 43 410 43 235 1 316 -11 307 -44 -3 -13 0 -16 14 -13 15 4
18 2 13 -12 -6 -14 -3 -16 16 -10 15 5 20 4 16 -4 -8 -12 37 -26 53 -16 6 3
11 2 11 -4 0 -6 15 -10 33 -9 19 1 40 -3 48 -8 21 -13 40 -14 33 -1 -3 7 1 5
8 -4 8 -10 28 -16 48 -16 20 1 43 -2 52 -6 10 -3 20 -2 23 3 3 5 20 6 39 3 20
-3 36 -1 40 6 5 8 13 8 28 0 18 -9 19 -8 13 10 -5 17 -3 20 12 14 16 -6 16 -5
4 10 -11 14 -11 18 3 23 9 3 22 4 30 1 10 -4 12 5 9 41 -6 63 -1 155 11 207
27 112 67 225 115 327 18 38 26 65 20 69 -6 3 -3 12 7 20 16 12 17 12 9 -1 -4
-8 3 -3 17 11 13 15 75 52 137 83 117 58 167 68 225 46 54 -20 82 -111 106
-350 6 -58 13 -118 15 -135 21 -150 37 -708 22 -732 -6 -10 -13 -8 -29 7 -12
11 -29 20 -37 20 -9 0 -34 11 -57 24 -40 22 -84 21 -84 -3 0 -5 -26 18 -57 52
-32 34 -79 82 -105 108 -26 25 -45 48 -43 51 3 3 -1 5 -8 5 -6 0 -32 14 -57
30 -25 17 -56 34 -70 37 -14 4 7 -12 45 -35 39 -24 102 -75 140 -113 74 -75
168 -181 174 -198 2 -5 37 -37 79 -70 42 -33 77 -68 77 -77 4 -45 6 -52 15
-46 13 8 13 -5 0 -25 -8 -12 -10 -12 -10 -1 0 8 -3 12 -6 8 -7 -6 10 -39 19
-38 19 3 27 0 27 -10 0 -5 -4 -8 -9 -4 -5 3 -12 1 -16 -5 -3 -5 1 -10 9 -10 9
0 13 -6 10 -14 -3 -8 -1 -17 5 -21 7 -3 8 0 5 9 -3 9 -2 16 4 16 5 0 12 -9 15
-20 3 -11 1 -20 -4 -20 -5 0 -9 -7 -9 -16 0 -14 3 -14 15 -4 13 10 15 9 15 -8
0 -12 5 -24 11 -28 8 -4 9 1 4 17 -7 21 -6 22 8 11 9 -8 13 -21 11 -30 -5 -14
-3 -13 10 2 9 11 18 17 21 15 3 -3 -5 -16 -17 -29 l-21 -23 31 5 c24 3 29 2
21 -8 -7 -9 -4 -17 13 -28 12 -9 18 -16 13 -16 -6 0 -3 -4 5 -10 8 -5 11 -12
7 -16 -4 -4 -15 0 -24 8 -36 30 -47 30 -14 -1 19 -18 40 -30 48 -27 8 3 24 -1
36 -9 24 -17 51 -20 42 -5 -3 6 -1 10 4 10 14 0 14 -17 1 -25 -13 -8 -3 -25
13 -25 8 0 7 4 -2 9 -9 6 5 8 38 6 35 -3 49 0 45 7 -5 7 2 9 19 6 15 -3 24 -1
21 3 -8 14 20 11 38 -3 25 -21 74 -100 89 -143 21 -62 16 -198 -10 -284 -37
-123 -212 -459 -270 -520 -86 -92 -228 -357 -256 -481 -10 -41 -24 -97 -31
-124 -21 -81 -15 -317 12 -496 68 -442 96 -670 82 -670 -4 0 -7 -15 -7 -32 l1
-33 8 30 c5 23 8 14 11 -42 2 -39 1 -69 -3 -66 -13 7 -9 -22 4 -36 7 -8 9 -11
3 -8 -7 3 -10 -80 -10 -241 0 -241 -16 -443 -37 -469 -5 -7 -7 -17 -3 -24 4
-6 1 -15 -6 -20 -8 -5 252 -9 614 -9 l627 0 0 2835 0 2835 -3000 0 -3000 0 0
-2835z m1230 2431 c0 -2 -8 -10 -17 -17 -16 -13 -17 -12 -4 4 13 16 21 21 21
13z m-59 -62 c-11 -15 -21 -24 -21 -20 0 10 34 55 39 51 2 -2 -6 -16 -18 -31z
m-68 -124 c-3 -11 -7 -20 -9 -20 -2 0 -4 9 -4 20 0 11 4 20 9 20 5 0 7 -9 4
-20z m-16 -62 c-3 -7 -5 -2 -5 12 0 14 2 19 5 13 2 -7 2 -19 0 -25z m-10 -50
c-3 -7 -5 -2 -5 12 0 14 2 19 5 13 2 -7 2 -19 0 -25z m-10 -140 c-3 -7 -5 -2
-5 12 0 14 2 19 5 13 2 -7 2 -19 0 -25z m0 -150 c-3 -8 -6 -5 -6 6 -1 11 2 17
5 13 3 -3 4 -12 1 -19z m1633 -8 c0 -5 -4 -10 -10 -10 -5 0 -10 5 -10 10 0 6
5 10 10 10 6 0 10 -4 10 -10z m-40 -35 c0 -8 -7 -15 -15 -15 -13 0 -14 3 -3
15 16 18 18 18 18 0z m1282 -33 c4 -12 -1 -18 -13 -19 -16 -2 -17 2 -9 18 13
24 16 24 22 1z m-1411 -23 c6 -13 7 -19 1 -15 -6 3 -12 0 -15 -6 -2 -7 -4 -1
-3 14 1 34 2 34 17 7z m-1446 -8 c3 -5 2 -12 -3 -15 -5 -3 -9 1 -9 9 0 17 3
19 12 6z m1461 -66 c1 -8 -2 -13 -7 -9 -5 3 -9 12 -9 21 0 19 13 9 16 -12z
m-1436 -75 c0 -13 -1 -13 -10 0 -5 8 -10 22 -10 30 0 13 1 13 10 0 5 -8 10
-22 10 -30z m3462 -177 c-6 -2 -9 -10 -6 -15 4 -7 2 -8 -5 -4 -13 9 -5 26 12
25 9 0 8 -2 -1 -6z m38 -49 c0 -2 -7 -4 -15 -4 -8 0 -15 4 -15 10 0 5 7 7 15
4 8 -4 15 -8 15 -10z m134 -150 c3 -8 2 -12 -4 -9 -6 3 -10 10 -10 16 0 14 7
11 14 -7z m166 -284 c0 -5 -2 -10 -4 -10 -3 0 -8 5 -11 10 -3 6 -1 10 4 10 6
0 11 -4 11 -10z m113 -10 c3 -11 1 -18 -4 -14 -5 3 -9 12 -9 20 0 20 7 17 13
-6z m-28 -19 c3 -5 1 -12 -4 -15 -5 -3 -11 1 -15 9 -6 16 9 21 19 6z m-3287
-449 c15 12 16 11 3 -4 -19 -25 -41 -22 -41 5 1 20 2 20 11 4 9 -15 13 -16 27
-5z m-71 -28 c-3 -3 -12 -4 -19 -1 -8 3 -5 6 6 6 11 1 17 -2 13 -5z m453 -34
c0 -5 -8 -10 -17 -10 -15 0 -16 2 -3 10 19 12 20 12 20 0z m-10 -63 c0 -5 -4
-5 -10 -2 -5 3 -10 14 -10 23 0 15 2 15 10 2 5 -8 10 -19 10 -23z m3144 -81
c-3 -9 -10 -16 -15 -16 -6 0 -5 9 1 21 13 24 24 20 14 -5z"/>
<path d="M3973 4565 c0 -8 4 -12 9 -9 5 3 6 10 3 15 -9 13 -12 11 -12 -6z"/>
<path d="M3906 4548 c3 -5 10 -6 15 -3 13 9 11 12 -6 12 -8 0 -12 -4 -9 -9z"/>
<path d="M1985 4250 c-18 -8 -17 -9 8 -9 16 -1 26 3 22 9 -3 6 -7 10 -8 9 -1
0 -11 -4 -22 -9z"/>
<path d="M1819 4123 l-24 -28 28 24 c25 23 32 31 24 31 -2 0 -14 -12 -28 -27z"/>
<path d="M1769 4063 l-24 -28 28 24 c25 23 32 31 24 31 -2 0 -14 -12 -28 -27z"/>
<path d="M4312 4033 c-36 -7 -87 -66 -102 -117 -15 -53 -7 -139 17 -175 13
-20 21 -23 59 -18 72 8 264 140 264 182 0 24 -63 87 -105 106 -46 19 -100 28
-133 22z m1 -60 c9 -9 -22 -43 -40 -43 -18 0 -17 15 3 34 17 17 27 20 37 9z"/>
<path d="M2859 3926 c-2 -3 -16 -7 -29 -10 -106 -20 -261 -110 -234 -135 38
-38 297 -87 501 -95 153 -7 223 -1 223 19 0 23 -69 102 -122 141 -87 62 -150
83 -249 84 -47 0 -88 -2 -90 -4z m121 -46 c10 -18 8 -20 -29 -20 -40 0 -57 11
-46 30 11 18 64 11 75 -10z"/>
<path d="M1610 3860 c0 -6 4 -9 9 -5 5 3 12 -2 14 -10 4 -12 5 -12 3 1 -1 19
-26 32 -26 14z"/>
<path d="M1600 3830 c0 -5 5 -10 10 -10 6 0 10 5 10 10 0 6 -4 10 -10 10 -5 0
-10 -4 -10 -10z"/>
<path d="M4077 3582 c-58 -13 -78 -13 -137 -2 -80 15 -146 8 -207 -21 -78 -38
-47 -69 69 -69 57 -1 84 -6 123 -25 28 -14 55 -25 62 -25 6 0 14 -10 16 -22 4
-21 4 -21 6 3 0 16 10 30 24 38 12 6 37 22 54 35 18 13 52 27 76 30 25 4 53
13 63 21 17 12 17 15 4 28 -24 23 -79 26 -153 9z m-135 -18 c63 -15 72 -15
126 0 67 19 138 21 148 5 9 -14 -12 -27 -56 -34 -43 -8 -67 -18 -101 -46 -38
-30 -82 -33 -131 -7 -31 17 -60 22 -124 23 -46 0 -87 4 -91 8 -12 13 24 39 74
53 64 17 77 17 155 -2z"/>
<path d="M4593 3393 c15 -2 37 -2 50 0 12 2 0 4 -28 4 -27 0 -38 -2 -22 -4z"/>
<path d="M4013 3350 c0 -25 2 -35 4 -22 2 12 2 32 0 45 -2 12 -4 2 -4 -23z"/>
<path d="M4534 3340 c-34 -15 -91 -38 -128 -50 -68 -23 -122 -24 -311 -5 -91
9 -1 -13 105 -26 122 -15 203 1 335 65 98 48 97 62 -1 16z"/>
<path d="M3029 3301 l-24 -19 37 11 c20 6 34 15 32 19 -8 13 -20 9 -45 -11z"/>
<path d="M3090 3301 c0 -8 296 -80 380 -92 164 -23 327 -8 475 45 91 32 59 33
-39 2 -207 -68 -359 -61 -738 32 -43 11 -78 17 -78 13z"/>
<path d="M2480 2460 c8 -5 22 -9 30 -9 10 0 8 3 -5 9 -27 12 -43 12 -25 0z"/>
<path d="M2530 2446 c0 -2 7 -7 16 -10 8 -3 12 -2 9 4 -6 10 -25 14 -25 6z"/>
<path d="M2577 2429 c7 -7 15 -10 18 -7 3 3 -2 9 -12 12 -14 6 -15 5 -6 -5z"/>
<path d="M4771 1084 c0 -11 3 -14 6 -6 3 7 2 16 -1 19 -3 4 -6 -2 -5 -13z"/>
<path d="M4782 330 c0 -14 2 -19 5 -12 2 6 2 18 0 25 -3 6 -5 1 -5 -13z"/>
</g>
</svg>
